<svg xmlns="http://www.w3.org/2000/svg" viewBox="0 0 1000 500">
  <path fill="rgba(0,0,0,0.06)" d="M200 150c20-20 40-5 60 10s40 25 60 15 40-30 60-20 40 15 60 25 30-5 40-15 30-20 50-10 40 5 60-5 30-25 50-20 40 15 60 10 30-15 50-25 40 0 60 10 40 25 60 20 40-25 60-20m-700 100c25-15 50 0 75 20s40 30 65 25 40-25 65-20 40 20 65 30 40-10 60-20 35-30 55-25 50 20 75 15 40-25 65-40 50 0 75 20 45 30 65 25 40-25 60-20m-600 100c30-20 60 5 90 25s55 30 80 25 55-30 80-25 55 20 80 30 50-10 75-20 45-30 70-25 55 20 80 15 50-25 75-40 55 0 80 20" stroke="rgba(0,0,0,0.1)" stroke-width="4" stroke-linecap="round" stroke-linejoin="round"/>
  <circle cx="300" cy="200" r="8" fill="rgba(0,0,0,0.05)"/>
  <circle cx="600" cy="250" r="8" fill="rgba(0,0,0,0.05)"/>
  <circle cx="750" cy="200" r="8" fill="rgba(0,0,0,0.05)"/>
  <circle cx="850" cy="350" r="8" fill="rgba(0,0,0,0.05)"/>
  <circle cx="450" cy="350" r="8" fill="rgba(0,0,0,0.05)"/>
</svg>
